name ./resultDataOpenSim/trcMotMarkerGrf/sub10/grf-04-06.mot
datacolumns 19
datarows 25
range 0.49600000 0.59200000
endheader

                time	     ground_force_vx	     ground_force_vy	     ground_force_vz	     ground_force_px	     ground_force_py	     ground_force_pz	   l_ground_force_vx	   l_ground_force_vy	   l_ground_force_vz	   l_ground_force_px	   l_ground_force_py	   l_ground_force_pz	     ground_torque_x	     ground_torque_y	     ground_torque_z	   l_ground_torque_x	   l_ground_torque_y	   l_ground_torque_z	
          0.49600000	         45.73623367	        464.64437792	        -17.83357062	         -0.78172266	          0.00000000	         -0.00418927	          0.00000000	          0.00000000	          0.00000000	          0.00000000	          0.00000000	          0.00000000	          0.00000000	          2.62846822	          0.00000000	          0.00000000	          0.00000000	          0.00000000	
          0.50000000	         47.93092582	        471.43309092	        -19.04045788	         -0.78101297	          0.00000000	         -0.00407202	          0.00000000	          0.00000000	          0.00000000	          0.00000000	          0.00000000	          0.00000000	          0.00000000	          2.69976331	          0.00000000	          0.00000000	          0.00000000	          0.00000000	
          0.50400000	         50.40010609	        478.26911199	        -20.38447430	         -0.78019120	          0.00000000	         -0.00391210	          0.00000000	          0.00000000	          0.00000000	          0.00000000	          0.00000000	          0.00000000	          0.00000000	          2.76580906	          0.00000000	          0.00000000	          0.00000000	          0.00000000	
          0.50800000	         53.06168080	        485.14562297	        -21.77750817	         -0.77927248	          0.00000000	         -0.00370586	          0.00000000	          0.00000000	          0.00000000	          0.00000000	          0.00000000	          0.00000000	          0.00000000	          2.83260644	          0.00000000	          0.00000000	          0.00000000	          0.00000000	
          0.51200000	         55.76214775	        492.10725673	        -23.15892144	         -0.77823725	          0.00000000	         -0.00345872	          0.00000000	          0.00000000	          0.00000000	          0.00000000	          0.00000000	          0.00000000	          0.00000000	          2.90265454	          0.00000000	          0.00000000	          0.00000000	          0.00000000	
          0.51600000	         58.33101284	        499.23600840	        -24.51358986	         -0.77705492	          0.00000000	         -0.00317933	          0.00000000	          0.00000000	          0.00000000	          0.00000000	          0.00000000	          0.00000000	          0.00000000	          2.97461951	          0.00000000	          0.00000000	          0.00000000	          0.00000000	
          0.52000000	         60.63358583	        506.63079490	        -25.87335822	         -0.77570705	          0.00000000	         -0.00287477	          0.00000000	          0.00000000	          0.00000000	          0.00000000	          0.00000000	          0.00000000	          0.00000000	          3.04385590	          0.00000000	          0.00000000	          0.00000000	          0.00000000	
          0.52400000	         62.60517110	        514.38653774	        -27.30102440	         -0.77420035	          0.00000000	         -0.00255924	          0.00000000	          0.00000000	          0.00000000	          0.00000000	          0.00000000	          0.00000000	          0.00000000	          3.10360907	          0.00000000	          0.00000000	          0.00000000	          0.00000000	
          0.52800000	         64.26195889	        522.58613459	        -28.86351912	         -0.77255856	          0.00000000	         -0.00225258	          0.00000000	          0.00000000	          0.00000000	          0.00000000	          0.00000000	          0.00000000	          0.00000000	          3.14674368	          0.00000000	          0.00000000	          0.00000000	          0.00000000	
          0.53200000	         65.69073979	        531.30296032	        -30.60355475	         -0.77081064	          0.00000000	         -0.00197235	          0.00000000	          0.00000000	          0.00000000	          0.00000000	          0.00000000	          0.00000000	          0.00000000	          3.16775601	          0.00000000	          0.00000000	          0.00000000	          0.00000000	
          0.53600000	         67.02168001	        540.59655629	        -32.51831361	         -0.76898894	          0.00000000	         -0.00173128	          0.00000000	          0.00000000	          0.00000000	          0.00000000	          0.00000000	          0.00000000	          0.00000000	          3.16465214	          0.00000000	          0.00000000	          0.00000000	          0.00000000	
          0.54000000	         68.39211538	        550.49608322	        -34.54947631	         -0.76712559	          0.00000000	         -0.00153852	          0.00000000	          0.00000000	          0.00000000	          0.00000000	          0.00000000	          0.00000000	          0.00000000	          3.14015060	          0.00000000	          0.00000000	          0.00000000	          0.00000000	
          0.54400000	         69.91303971	        560.98731214	        -36.58508903	         -0.76524847	          0.00000000	         -0.00140282	          0.00000000	          0.00000000	          0.00000000	          0.00000000	          0.00000000	          0.00000000	          0.00000000	          3.10174382	          0.00000000	          0.00000000	          0.00000000	          0.00000000	
          0.54800000	         71.64962975	        572.01786358	        -38.47300208	         -0.76337953	          0.00000000	         -0.00132882	          0.00000000	          0.00000000	          0.00000000	          0.00000000	          0.00000000	          0.00000000	          0.00000000	          3.06046693	          0.00000000	          0.00000000	          0.00000000	          0.00000000	
          0.55200000	         73.61990029	        583.51716114	        -40.04434658	         -0.76153592	          0.00000000	         -0.00131831	          0.00000000	          0.00000000	          0.00000000	          0.00000000	          0.00000000	          0.00000000	          0.00000000	          3.02864628	          0.00000000	          0.00000000	          0.00000000	          0.00000000	
          0.55600000	         75.80861212	        595.42105028	        -41.14343040	         -0.75973029	          0.00000000	         -0.00137254	          0.00000000	          0.00000000	          0.00000000	          0.00000000	          0.00000000	          0.00000000	          0.00000000	          3.01721449	          0.00000000	          0.00000000	          0.00000000	          0.00000000	
          0.56000000	         78.19122365	        607.69184916	        -41.65924985	         -0.75797397	          0.00000000	         -0.00149054	          0.00000000	          0.00000000	          0.00000000	          0.00000000	          0.00000000	          0.00000000	          0.00000000	          3.03325338	          0.00000000	          0.00000000	          0.00000000	          0.00000000	
          0.56400000	         80.76015390	        620.31544419	        -41.55278104	         -0.75628712	          0.00000000	         -0.00166874	          0.00000000	          0.00000000	          0.00000000	          0.00000000	          0.00000000	          0.00000000	          0.00000000	          3.07829958	          0.00000000	          0.00000000	          0.00000000	          0.00000000	
          0.56800000	         83.54368492	        633.26553057	        -40.87224459	         -0.75469875	          0.00000000	         -0.00190313	          0.00000000	          0.00000000	          0.00000000	          0.00000000	          0.00000000	          0.00000000	          0.00000000	          3.14776469	          0.00000000	          0.00000000	          0.00000000	          0.00000000	
          0.57200000	         86.61077218	        646.46054745	        -39.74788852	         -0.75322702	          0.00000000	         -0.00218996	          0.00000000	          0.00000000	          0.00000000	          0.00000000	          0.00000000	          0.00000000	          0.00000000	          3.23167329	          0.00000000	          0.00000000	          0.00000000	          0.00000000	
          0.57600000	         90.06074447	        659.74850679	        -38.36222803	         -0.75187338	          0.00000000	         -0.00252205	          0.00000000	          0.00000000	          0.00000000	          0.00000000	          0.00000000	          0.00000000	          0.00000000	          3.31675954	          0.00000000	          0.00000000	          0.00000000	          0.00000000	
          0.58000000	         93.99921135	        672.92483866	        -36.90071813	         -0.75064252	          0.00000000	         -0.00288865	          0.00000000	          0.00000000	          0.00000000	          0.00000000	          0.00000000	          0.00000000	          0.00000000	          3.38966731	          0.00000000	          0.00000000	          0.00000000	          0.00000000	
          0.58400000	         98.50451487	        685.76501596	        -35.49664381	         -0.74954352	          0.00000000	         -0.00328254	          0.00000000	          0.00000000	          0.00000000	          0.00000000	          0.00000000	          0.00000000	          0.00000000	          3.44056850	          0.00000000	          0.00000000	          0.00000000	          0.00000000	
          0.58800000	        103.59780192	        698.05300376	        -34.19037997	         -0.74858141	          0.00000000	         -0.00370391	          0.00000000	          0.00000000	          0.00000000	          0.00000000	          0.00000000	          0.00000000	          0.00000000	          3.46615629	          0.00000000	          0.00000000	          0.00000000	          0.00000000	
          0.59200000	        109.23412321	        709.58982936	        -32.92570274	         -0.74775395	          0.00000000	         -0.00416019	          0.00000000	          0.00000000	          0.00000000	          0.00000000	          0.00000000	          0.00000000	          0.00000000	          3.47097692	          0.00000000	          0.00000000	          0.00000000	          0.00000000	
